<svg class="svg-icon" style="width: 1em; height: 1em;vertical-align: middle;fill: currentColor;overflow: hidden;" viewBox="0 0 1024 1024" version="1.1" xmlns="http://www.w3.org/2000/svg"><path d="M888.97 282.47L670.58 64.08c-7-7-16.5-10.94-26.4-10.94H259.02c-82.34 0-149.33 66.99-149.33 149.33V799.8c0 82.34 66.99 149.33 149.33 149.33h491.55c82.34 0 149.33-66.99 149.33-149.33V308.86c0.01-9.9-3.93-19.39-10.93-26.39z m-95.3 10.28H660.3V159.39l133.37 133.36z m-43.1 581.73H259.02c-41.17 0-74.67-33.49-74.67-74.67V202.48c0-41.18 33.5-74.67 74.67-74.67h326.61v202.27c0 20.62 16.72 37.33 37.33 37.33h202.28v432.4c0 41.18-33.5 74.67-74.67 74.67z"  /></svg>