<svg class="svg-icon" style="width: 1em; height: 1em;vertical-align: middle;fill: currentColor;overflow: hidden;" viewBox="0 0 1024 1024" version="1.1" xmlns="http://www.w3.org/2000/svg"><path d="M716.84 64.22H306.17c-82.34 0-149.33 66.99-149.33 149.33v597.33c0 82.34 66.99 149.33 149.33 149.33h410.67c82.34 0 149.33-66.99 149.33-149.33V213.56c0-82.34-66.99-149.34-149.33-149.34z m-410.67 74.67h410.67c41.17 0 74.67 33.49 74.67 74.67v490.31h-560V213.56c0-41.18 33.49-74.67 74.66-74.67z m410.67 746.67H306.17c-41.17 0-74.67-33.49-74.67-74.67v-32.36h560v32.36c0.01 41.18-33.49 74.67-74.66 74.67z"  /><path d="M521.87 797.89h-20.74c-20.62 0-37.33 16.72-37.33 37.33s16.72 37.33 37.33 37.33h20.74c20.62 0 37.33-16.72 37.33-37.33s-16.71-37.33-37.33-37.33z"  /></svg>